<svg width="300" height="101" viewBox="0 0 300 101" fill="none" xmlns="http://www.w3.org/2000/svg">
<path d="M145.798 36.2241C145.324 37.6783 144.85 39.1642 144.376 40.6184C143.427 43.59 142.51 46.5933 141.562 49.565C140.803 51.936 140.076 54.3386 139.349 56.7096C138.59 59.1438 137.8 61.5464 137.041 63.9806C136.852 64.6129 136.725 65.2768 136.441 65.8458C136.314 66.0987 135.935 66.3833 135.65 66.4149C134.196 66.4781 132.742 66.4781 131.319 66.4149C131.035 66.4149 130.624 66.0987 130.561 65.8458C129.422 62.3051 128.348 58.7328 127.241 55.1605C126.482 52.7263 125.692 50.2921 124.902 47.8894C124.017 45.0442 123.131 42.2307 122.246 39.3855C120.855 34.928 119.433 30.4705 118.01 26.013C116.872 22.3459 115.734 18.6787 114.596 15.0116C113.774 12.4193 112.984 9.79538 112.004 7.2347C111.276 5.40113 110.36 3.56755 108.305 2.74561C107.925 2.58754 107.609 2.17657 107.325 1.82882C107.198 1.70237 107.167 1.32301 107.293 1.19655C107.767 0.659125 108.178 0.090085 109.127 0.090085C111.972 0.153312 114.817 0.121698 117.662 0.121698C118.263 0.121698 119.306 0.785578 119.433 1.32301C119.496 1.5443 119.369 1.95527 119.18 2.05011C117.599 3.09335 117.789 4.57918 118.231 6.06501C119.022 8.84698 119.875 11.5973 120.729 14.3793C121.646 17.3194 122.562 20.2594 123.479 23.1678C124.27 25.6337 125.091 28.0995 125.882 30.597C126.356 32.0512 126.767 33.5054 127.21 34.9596C128 37.5203 128.822 40.0493 129.644 42.61C130.118 44.0642 130.529 45.5185 131.003 46.9727C131.825 49.5333 132.647 52.1256 133.469 54.6863C133.912 56.0457 134.323 57.4051 134.734 58.7644C134.765 58.8909 134.828 59.0173 134.955 59.3019C135.144 58.8277 135.334 58.5115 135.429 58.1954C136.852 53.6747 138.274 49.1856 139.697 44.6649C141.088 40.239 142.416 35.7815 143.807 31.3241C144.945 27.6885 146.114 24.053 147.284 20.4175C148.043 18.0148 148.77 15.6122 149.497 13.178C150.192 10.9018 150.888 8.62569 151.583 6.31791C151.741 5.84371 151.836 5.3379 151.9 4.8637C152.058 3.85207 151.931 2.93529 150.983 2.27141C150.698 2.08173 150.351 1.41785 150.477 1.29139C150.825 0.817192 151.331 0.153312 151.836 0.153312C154.049 0.0268583 156.262 0.0268583 158.475 0.153312C158.949 0.184925 159.487 0.848805 159.803 1.32301C159.898 1.48107 159.518 2.0185 159.297 2.33463C159.171 2.52431 158.949 2.71399 158.76 2.77722C156.831 3.47271 155.946 5.14822 155.251 6.82373C153.48 11.218 151.9 15.6755 151.868 20.5123C151.836 23.5472 151.615 26.6137 151.71 29.6486C151.836 34.2641 152.532 38.7848 153.702 43.2739C154.555 46.5617 155.598 49.7862 157.084 52.8527C158.254 55.3186 159.708 57.6264 161.067 59.9974C161.194 60.2503 161.415 60.4399 161.731 60.7877C162.079 59.7445 162.395 58.8909 162.68 58.0057C163.596 55.0973 164.513 52.1889 165.398 49.2804C166.22 46.6565 166.979 44.0642 167.801 41.4403C168.876 37.9945 169.982 34.517 171.089 31.0712C171.911 28.4789 172.67 25.8866 173.491 23.3259C174.155 21.1762 174.851 19.0265 175.546 16.8768C176.653 13.3361 177.759 9.79538 178.834 6.25469C178.961 5.8121 178.992 5.3379 179.055 4.8637C179.213 3.85207 179.087 2.93529 178.139 2.27141C177.854 2.08173 177.506 1.44946 177.633 1.25978C177.949 0.722352 178.297 0.0584717 179.055 0.0584717C181.205 0.0584717 183.386 0.0584717 185.536 0.0584717C185.947 0.0584717 187.148 1.0701 187.022 1.35462C186.801 1.86043 186.453 2.46109 185.979 2.65077C183.45 3.78885 182.533 6.12823 181.711 8.43601C180.383 12.198 179.245 16.0232 178.044 19.8484C176.906 23.5156 175.799 27.1827 174.661 30.8499C173.555 34.3906 172.385 37.8996 171.279 41.4403C170.077 45.2339 168.908 49.0275 167.738 52.7895C166.378 57.0889 165.019 61.3567 163.691 65.6561C163.502 66.2252 163.217 66.4149 162.616 66.4149C161.384 66.3833 160.151 66.4465 158.918 66.3832C158.57 66.3516 158.096 66.162 157.874 65.8774C155.598 62.7477 153.638 59.4283 151.963 55.9508C150.224 52.3785 148.833 48.7114 147.821 44.8862C147.158 42.3887 146.778 39.7964 146.304 37.2358C146.241 36.888 146.178 36.5403 146.114 36.1925C145.956 36.2241 145.893 36.2241 145.798 36.2241Z" fill="white"/>
<path d="M99.8008 53.9592C97.8408 55.5715 95.9124 57.2786 93.8891 58.8593C91.0123 61.1038 87.8826 62.9374 84.5 64.3284C82.8245 64.9923 81.0857 65.4981 79.3154 65.9723C75.3953 66.9839 71.4121 66.9839 67.492 66.2568C63.3507 65.4981 59.4938 63.9174 55.8267 61.7993C49.504 58.1322 44.193 53.2637 39.2929 47.8895C35.278 43.4636 31.5792 38.7848 28.2915 33.7899C25.1934 29.0479 22.3165 24.1478 19.3765 19.311C19.2817 19.1529 19.1552 18.9633 18.9339 18.6155C18.3649 19.5007 17.8274 20.2594 17.3849 21.0497C15.2352 24.875 13.6545 28.9531 12.548 33.1893C11.5048 37.2042 10.7777 41.3139 10.3983 45.4552C9.98734 49.6914 9.70282 53.896 9.86089 58.1322C9.92411 59.4283 10.177 60.7561 10.5564 61.989C10.7144 62.5897 11.3467 63.0323 11.7577 63.5697C11.8525 63.6961 12.0422 63.7277 12.137 63.8542C12.4216 64.2968 12.8958 64.7078 12.9274 65.182C12.959 65.6878 11.7261 66.4465 11.1254 66.4465C8.24861 66.4465 5.37179 66.4465 2.52659 66.4465C2.02078 66.4465 0.78786 65.5929 0.724633 65.1503C0.69302 64.9923 0.78786 64.7394 0.914313 64.5813C1.16722 64.2652 1.42013 63.9174 1.76787 63.7594C3.00079 63.1587 3.38015 62.0522 3.53822 60.8509C3.75951 59.3019 3.94919 57.7212 3.94919 56.1405C3.98081 40.6816 3.98081 25.2227 3.94919 9.76378C3.94919 8.1515 3.63306 6.53922 3.38015 4.92694C3.19047 4.04176 2.74789 3.25143 1.8311 2.84046C1.70465 2.77723 1.57819 2.714 1.51497 2.61916C1.23045 2.17658 0.78786 1.79722 0.756246 1.35463C0.69302 0.88043 1.98917 0.12171 2.55821 0.12171C5.46663 0.12171 8.34345 0.153324 11.2519 0.0900969C12.1687 0.0900969 12.5164 0.722364 12.959 1.25979C13.0538 1.35463 12.959 1.73399 12.8325 1.89206C12.6745 2.14496 12.4532 2.42948 12.1687 2.55594C10.4299 3.37788 10.3035 5.05339 9.98734 6.60244C9.82927 7.42439 9.79766 8.27795 9.79766 9.13151C9.79766 15.7387 9.79766 22.3459 9.79766 28.9531C9.79766 29.1744 9.82927 29.3957 9.82927 29.617C9.8925 29.6486 9.95573 29.6486 10.019 29.6802C10.3035 28.9215 10.5248 28.1311 10.8409 27.3724C12.0422 24.5588 13.1803 21.682 14.508 18.9316C16.1519 15.549 18.3965 12.5774 21.0204 9.89023C23.0753 7.77214 25.4146 5.97018 27.9753 4.48435C32.0851 2.11335 36.5425 0.78559 41.2529 0.279777C42.4226 0.153324 43.6239 0.0900969 44.7936 0.0584836C46.153 0.0268703 46.8801 0.753977 46.8801 2.17658C46.8801 3.56756 46.8485 4.95855 46.8801 6.34954C46.9117 7.26632 46.2162 7.58246 45.6788 8.05666C45.584 8.11988 45.2994 8.08827 45.173 7.99343C44.7936 7.61407 44.351 7.23471 44.0665 6.76051C43.7188 6.15986 43.2446 5.84372 42.6123 5.68566C40.6207 5.14823 38.6606 5.43275 36.7638 6.0334C34.6457 6.69728 32.496 7.39278 30.4728 8.30956C27.7856 9.51087 25.4146 11.218 23.2966 13.2412C23.1701 13.3677 23.1069 13.7471 23.2017 13.9051C25.0037 17.1613 26.6792 20.3859 28.5128 23.484C30.8205 27.404 33.1599 31.2925 35.6574 35.0861C40.3361 42.1358 45.6156 48.7114 52.1279 54.2121C55.9531 57.4367 60.0945 60.1554 64.8681 61.7993C69.6733 63.4432 74.5418 63.6961 79.4735 62.4C85.8277 60.7245 91.1388 57.2786 95.9756 52.9792C97.2718 51.8411 99.1686 51.9992 99.8008 53.9592Z" fill="white"/>
<path d="M275.318 44.2855C275.35 44.0326 275.381 43.7481 275.381 43.4952C275.381 31.7983 275.381 20.1013 275.35 8.4044C275.35 7.29793 275.097 6.15985 274.875 5.05339C274.654 4.10499 274.243 3.21981 273.232 2.77723C273.137 2.74561 273.042 2.65077 272.979 2.58755C272.726 2.17657 272.315 1.79721 272.252 1.38624C272.188 0.943653 273.358 0.184933 273.895 0.184933C275.919 0.184933 277.942 0.216546 279.965 0.15332C280.882 0.121706 281.23 0.785586 281.672 1.32301C281.767 1.41785 281.672 1.7656 281.546 1.95528C281.388 2.20819 281.135 2.49271 280.882 2.61916C279.143 3.53595 278.89 5.24307 278.732 6.91857C278.606 8.05665 278.606 9.22635 278.606 10.396C278.606 26.1711 278.574 41.9461 278.637 57.7212C278.637 59.2703 278.985 60.8509 279.428 62.3367C279.649 63.0322 280.534 63.5064 281.072 64.1387C281.356 64.4548 281.767 65.0239 281.672 65.1819C281.325 65.751 280.945 66.4465 280.123 66.4781C278.163 66.4781 276.235 66.4781 274.275 66.4781C273.579 66.4781 272.631 65.4349 272.599 64.6761C272.504 62.7477 272.504 60.8193 272.252 58.9225C271.682 54.307 270.608 49.8179 268.995 45.4552C266.34 38.279 262.483 31.7983 257.931 25.7285C253.568 19.9433 248.636 14.6638 243.389 9.66893C242.535 8.84699 241.65 8.05665 240.607 7.07664C240.575 7.55084 240.512 7.80375 240.512 8.02504C240.512 24.8433 240.512 41.63 240.543 58.4483C240.543 59.9341 240.733 61.42 241.523 62.7161C241.871 63.2535 242.535 63.6013 242.978 64.1071C243.262 64.4232 243.673 65.0239 243.578 65.1503C243.199 65.6561 242.63 66.3833 242.124 66.4149C239.974 66.5413 237.793 66.5413 235.643 66.4149C235.106 66.3833 234.6 65.6245 234.157 65.1503C234.094 65.0871 234.221 64.7077 234.347 64.5497C234.537 64.2652 234.79 63.9806 235.074 63.8542C236.528 63.1587 236.781 61.7677 237.034 60.4399C237.224 59.5548 237.256 58.6064 237.256 57.6896C237.256 41.3771 237.256 25.0646 237.256 8.78376C237.256 7.26632 237.161 5.71727 236.465 4.29467C236.212 3.78885 235.738 3.37788 235.359 2.93529C235.232 2.77723 234.979 2.714 234.853 2.55593C234.568 2.17657 234.189 1.7656 234.157 1.35463C234.126 0.91204 235.296 0.15332 235.833 0.15332C237.572 0.15332 239.31 0.121706 241.049 0.184933C241.429 0.184933 241.871 0.343 242.156 0.595906C247.403 4.89532 252.24 9.57409 256.761 14.6322C260.08 18.331 263.147 22.2194 265.897 26.3608C269.47 31.6718 272.441 37.2674 274.654 43.2423C274.781 43.59 274.97 43.9378 275.128 44.2855C275.192 44.2855 275.255 44.2855 275.318 44.2855Z" fill="white"/>
<path d="M194.009 33.3157C194.009 25.1595 194.04 16.9716 193.977 8.81537C193.977 7.48761 193.692 6.15985 193.44 4.83209C193.281 3.97853 192.839 3.21981 191.954 2.80883C191.764 2.71399 191.574 2.55593 191.479 2.39786C191.227 2.0185 190.784 1.44946 190.879 1.29139C191.258 0.753968 191.606 0.0900879 192.491 0.0900879C203.777 0.121701 215.031 0.0900879 226.317 0.0900879C227.139 0.0900879 228.024 0.975261 228.024 1.79721C228.024 4.01014 228.024 6.22307 228.024 8.43601C228.024 8.94182 227.234 10.0167 226.792 10.1431C226.317 10.2696 225.337 9.28957 225.243 8.62569C225.084 7.58245 224.99 6.53921 224.705 5.52758C224.231 3.9153 223.346 3.34626 221.67 3.34626C214.747 3.34626 207.824 3.34626 200.9 3.31465C200.173 3.31465 199.952 3.53594 199.983 4.26305C200.015 10.6489 200.015 17.0664 199.983 23.4523C199.983 24.053 200.078 24.3691 200.774 24.3691C205.737 24.3375 210.669 24.3375 215.632 24.3059C216.17 24.3059 216.739 24.2111 217.276 24.053C217.529 23.9898 217.719 23.6736 217.908 23.4523C218.035 23.2943 217.971 23.0098 218.13 22.8833C218.572 22.5039 218.983 21.9981 219.521 21.8401C219.995 21.7136 220.785 23.0098 220.785 23.7052C220.785 25.1911 220.753 26.7085 220.817 28.1943C220.848 29.1111 220.216 29.5537 219.647 29.9963C219.521 30.0911 219.141 30.0279 219.046 29.9015C218.667 29.4273 218.351 28.8898 217.971 28.4156C217.782 28.1943 217.56 27.9098 217.308 27.8466C216.549 27.6885 215.79 27.5937 215.031 27.5937C210.384 27.5621 205.769 27.5937 201.122 27.5937C200.047 27.5937 200.047 27.5937 200.047 28.6369C200.047 39.7648 200.047 50.9243 200.047 62.0522C200.047 63.0955 200.047 63.0955 201.09 63.0955C208.108 63.0955 215.095 63.0955 222.113 63.0955C224.673 63.0955 225.717 62.1155 226.001 59.5548C226.064 58.9541 226.033 58.2902 226.254 57.7844C226.507 57.2154 227.013 56.7728 227.424 56.2986C227.487 56.2354 227.803 56.267 227.93 56.3618C228.499 56.8676 229.131 57.2786 229.099 58.2586C229.005 60.3451 229.068 62.4316 229.068 64.4865C229.068 65.3084 228.024 66.3516 227.234 66.3516C215.727 66.3516 204.22 66.3516 192.712 66.3516C192.207 66.3516 191.005 65.4981 190.91 65.0555C190.879 64.8974 190.942 64.6761 191.069 64.5813C191.385 64.2335 191.701 63.8226 192.08 63.6013C192.934 63.1587 193.345 62.4632 193.503 61.6413C193.756 60.3135 194.04 58.9541 194.072 57.5947C194.04 49.5333 194.009 41.4403 194.009 33.3157Z" fill="white"/>
<path d="M54.7202 17.9832C54.7202 14.8535 54.7834 11.7238 54.6886 8.59408C54.6254 7.17148 54.3092 5.74888 53.9299 4.35789C53.8034 3.82047 53.2028 3.37788 52.8234 2.93529C52.697 2.80884 52.4757 2.74561 52.3808 2.61916C52.0963 2.20819 51.6853 1.79721 51.6537 1.35463C51.6221 0.880427 52.7602 0.184934 53.3292 0.184934C56.2377 0.184934 59.1777 0.184934 62.0861 0.184934C62.5919 0.184934 63.73 0.91204 63.8565 1.38624C63.8881 1.54431 63.8565 1.7656 63.73 1.89205C63.4139 2.2398 63.0977 2.65077 62.7184 2.87207C61.7068 3.40949 61.2958 4.29467 61.1377 5.27468C60.9164 6.5076 60.7267 7.77213 60.7267 9.03667C60.6951 14.3161 60.6635 19.5639 60.7267 24.8433C60.7584 28.795 61.0745 32.7467 62.2442 36.5403C63.3507 40.1126 65.0578 43.2739 68.3139 45.392C70.274 46.6565 72.4869 47.3204 74.7631 47.5417C78.8728 47.9527 82.9193 47.6049 86.7129 45.7714C89.7478 44.3171 91.8027 41.9461 93.1304 38.8797C94.3633 36.0977 94.8691 33.1893 95.2169 30.186C95.7543 25.3808 95.533 20.5755 95.5646 15.7387C95.5963 12.9251 95.533 10.1115 95.4382 7.29793C95.4066 6.34953 95.1537 5.36952 94.8059 4.45273C94.5846 3.88369 94.0472 3.44111 93.6046 2.96691C93.2569 2.61916 92.8459 2.33464 92.4981 1.95528C92.3717 1.82883 92.3085 1.57592 92.3401 1.38624C92.4349 0.975267 93.573 0.15332 94.0156 0.15332C96.0705 0.15332 98.1253 0.15332 100.18 0.15332C100.686 0.15332 101.761 0.91204 101.856 1.38624C101.887 1.57592 101.856 1.82883 101.729 1.95528C101.413 2.30303 101.097 2.68239 100.686 2.90368C99.9589 3.28304 99.5163 3.88369 99.3899 4.6108C99.1053 6.09663 98.7576 7.61407 98.7576 9.13151C98.6628 15.3277 98.7576 21.5239 98.6627 27.6885C98.5995 31.2925 98.0937 34.8648 96.9556 38.3422C95.7543 41.9461 93.8575 45.0759 90.6962 47.3204C88.0723 49.1856 85.1322 50.134 82.0025 50.5766C77.9876 51.1772 73.9411 51.0824 69.9895 50.1024C64.9313 48.8379 60.9164 46.0243 58.3241 41.4087C56.4906 38.1525 55.4789 34.6435 55.1628 30.9763C54.7834 26.6769 54.6886 22.3775 54.4989 18.0465C54.5938 17.9832 54.657 17.9832 54.7202 17.9832Z" fill="white"/>
<path d="M293.211 0.121707C294.665 0.121707 296.12 0.121707 297.542 0.121707C298.08 0.121707 299.123 0.8172 299.249 1.2914C299.313 1.48108 299.218 1.7656 299.091 1.92367C298.902 2.20819 298.649 2.49271 298.364 2.65077C297.131 3.25143 296.72 4.38951 296.499 5.59081C296.309 6.60244 296.151 7.61407 296.151 8.65731C296.12 25.0646 296.12 41.4719 296.183 57.8793C296.183 59.3651 296.625 60.8825 297.005 62.3367C297.131 62.8109 297.7 63.1903 298.08 63.6013C298.174 63.6961 298.301 63.7277 298.396 63.8226C298.744 64.2336 299.439 64.4865 299.249 65.1819C299.123 65.7194 298.016 66.4465 297.416 66.4465C294.571 66.4465 291.725 66.4465 288.88 66.4465C288.311 66.4465 287.205 65.751 287.015 65.2136C286.952 65.0555 286.983 64.771 287.11 64.6445C287.426 64.2968 287.742 63.8858 288.121 63.6645C289.007 63.2219 289.418 62.4948 289.576 61.6413C289.829 60.3451 290.113 58.9857 290.113 57.658C290.145 41.3771 290.145 25.0962 290.113 8.84699C290.113 7.10825 290.018 5.27468 289.038 3.75724C288.659 3.15659 287.995 2.68239 287.394 2.20819C286.794 1.70237 286.857 1.35463 287.363 0.785587C287.869 0.24816 288.406 0.0900938 289.101 0.121707C290.524 0.15332 291.883 0.121707 293.211 0.121707Z" fill="white"/>
<path d="M8.84926 78.4596C8.6912 78.2383 8.43829 78.017 8.43829 77.7957C8.37506 76.9737 8.37506 76.1518 8.43829 75.3615C8.4699 75.1085 8.81765 74.8556 9.07056 74.6976C9.19701 74.6027 9.4183 74.666 9.60798 74.666C15.1087 74.666 20.6094 74.666 26.1101 74.666C26.4895 74.666 26.8689 74.8556 27.3114 75.1085C26.0153 76.0886 26.0469 77.3847 26.0469 78.6809C26.0469 80.1983 26.0785 81.7473 26.0469 83.2648C26.0469 83.8338 26.2682 84.0551 26.8372 84.0551C30.0934 84.0235 33.3812 84.0235 36.6374 84.0551C37.238 84.0551 37.4593 83.8338 37.4593 83.2332C37.4277 81.6841 37.4277 80.1351 37.4593 78.586C37.4909 77.3215 37.4909 76.0569 36.1632 75.2982C36.1948 75.235 36.1948 75.1402 36.2264 75.0769C36.5425 74.9505 36.8587 74.7292 37.2064 74.7292C41.3794 74.6976 45.584 74.7292 49.7569 74.6976C50.2943 74.6976 50.6421 74.9189 50.6737 75.4563C50.7053 76.2466 50.7053 77.037 50.6737 77.8273C50.6737 78.0802 50.4524 78.3331 50.326 78.5544C50.2311 78.5544 50.1679 78.5544 50.073 78.586C49.9466 78.2383 49.7569 77.9221 49.6937 77.5744C49.4724 76.2466 49.1246 75.9305 47.7653 75.9305C45.3943 75.9305 43.0233 75.9621 40.6523 75.8989C39.8619 75.8989 39.6723 76.1518 39.6723 76.9105C39.7039 79.0286 39.7039 81.1151 39.6723 83.2332C39.6723 83.8654 39.8619 84.1183 40.5258 84.1183C42.2646 84.0867 44.0033 84.1183 45.742 84.1183C46.2478 84.1183 46.7536 84.1183 46.9749 83.5177C47.0382 83.3596 47.2911 83.2332 47.4491 83.2332C47.5756 83.2332 47.7653 83.4861 47.7653 83.6441C47.7969 84.3396 47.7969 85.0667 47.7653 85.7622C47.7653 85.9203 47.5756 86.1732 47.4491 86.1732C47.2911 86.1732 47.1014 86.0151 46.9433 85.8887C46.6904 85.7306 46.4059 85.3829 46.153 85.3829C44.1614 85.3196 42.1381 85.3196 40.1465 85.288C39.5774 85.288 39.6407 85.7306 39.6407 86.0784C39.6407 88.5126 39.6407 90.9152 39.6407 93.3494C39.6407 94.9617 39.6723 96.574 39.6407 98.1547C39.6407 98.7553 39.7987 99.0082 40.431 99.0082C43.0233 98.9766 45.6472 99.0082 48.2395 99.0082C49.3776 99.0082 49.7569 98.6289 49.9466 97.4908C50.0098 97.1114 50.1679 96.7637 50.2943 96.3843C50.3892 96.3843 50.484 96.3843 50.5789 96.3843C50.7053 96.6056 50.9266 96.8585 50.9582 97.0798C51.0214 97.8701 50.9898 98.6605 50.9582 99.4508C50.9266 100.083 50.484 100.178 49.9466 100.146C46.4059 100.146 42.8336 100.146 39.2929 100.146C38.5658 100.146 37.8071 100.178 37.08 100.146C36.7638 100.115 36.4793 99.9566 36.1 99.8618C36.258 99.6089 36.3213 99.4824 36.4161 99.4192C37.2064 98.9134 37.4277 98.123 37.4277 97.2379C37.4277 93.5391 37.4277 89.8087 37.4277 86.11C37.4277 85.5093 37.238 85.3197 36.6374 85.3197C33.3496 85.3197 30.0618 85.3197 26.774 85.3197C26.2366 85.3197 26.0153 85.5093 26.0153 86.0468C26.0469 89.7455 26.0153 93.4759 26.0153 97.1747C26.0153 98.1863 26.2998 99.1031 27.5327 99.7353C26.9953 99.9566 26.7424 100.146 26.4895 100.178C25.4463 100.21 24.3714 100.21 23.3282 100.178C23.1069 100.178 22.8856 99.9566 22.6959 99.8302C22.7907 99.6405 22.9172 99.4508 23.012 99.2611C23.2333 98.8502 23.5495 98.4392 23.6759 97.965C23.8024 97.5224 23.8024 97.0166 23.8024 96.5424C23.8024 90.0933 23.8024 83.6441 23.8024 77.1634C23.8024 75.9621 23.8024 75.9621 22.5694 75.9621C21.1468 75.9621 19.7242 75.9937 18.3016 75.9621C17.7326 75.9621 17.5113 76.1834 17.5113 76.7524C17.5113 83.5493 17.5113 90.3462 17.5429 97.143C17.5429 97.9966 17.701 98.8185 18.4913 99.356C18.8707 99.6405 18.681 100.051 18.3649 100.051C17.0371 100.083 15.7094 100.051 14.35 100.02C14.2235 100.02 14.1287 99.8934 13.8758 99.7353C15.5829 98.6921 15.2668 97.1114 15.2668 95.6256C15.2668 89.3978 15.2668 83.1383 15.2984 76.9105C15.2984 76.1834 15.1087 75.9305 14.3816 75.9621C13.2751 76.0253 12.1687 75.9621 11.0622 75.9937C9.95573 75.9937 9.70282 76.2466 9.48153 77.3531C9.38669 77.7957 9.19701 78.2066 9.07056 78.6176C9.03894 78.4596 8.9441 78.4596 8.84926 78.4596Z" fill="white"/>
<path d="M128.98 84.4977C128.98 82.348 128.98 80.1667 128.98 78.017C128.98 77.037 128.853 76.1518 128 75.4879C127.652 75.2034 127.842 74.6976 128.348 74.6659C129.517 74.6027 130.655 74.6343 131.825 74.6659C132.015 74.6659 132.236 74.9189 132.331 75.0769C132.363 75.1718 132.141 75.3931 132.046 75.5827C131.762 76.1834 131.256 76.784 131.256 77.3847C131.193 82.2215 131.161 87.09 131.288 91.9268C131.319 93.3178 131.825 94.7088 132.268 96.0366C132.805 97.6172 134.038 98.5972 135.619 99.0082C137.832 99.5773 140.045 99.3876 141.973 98.0598C142.605 97.6172 143.111 96.985 143.522 96.3211C143.712 96.005 143.585 95.4043 143.427 95.0249C142.605 93.1281 142.352 91.1365 143.743 89.5242C144.692 88.4494 144.692 87.3429 144.692 86.1416C144.692 83.4861 144.692 80.8306 144.692 78.175C144.692 77.2266 144.692 76.2466 143.775 75.5511C143.396 75.2666 143.585 74.7292 144.059 74.6976C144.881 74.6343 145.703 74.6343 146.494 74.6976C146.999 74.7292 147.158 75.2666 146.778 75.5511C145.956 76.1518 145.893 77.037 145.893 77.8905C145.861 80.9886 145.893 84.1183 145.861 87.2164C145.861 87.7539 146.051 87.9752 146.62 87.9435C149.718 87.7855 151.552 89.6823 153.006 92.0533C153.227 92.401 152.816 93.3178 152.437 93.7288C152.121 94.0765 151.647 93.6656 151.489 93.1281C151.109 91.8636 150.477 90.7571 149.434 89.9036C147.821 88.5442 145.292 88.8603 144.502 90.5358C143.838 91.9901 143.965 93.4759 144.723 94.8669C145.735 96.7004 147.347 97.7753 149.244 98.4708C152.342 99.5773 155.535 99.7353 158.728 99.2295C160.087 99.0082 161.384 98.534 162.49 97.6488C164.956 95.6888 164.924 92.3378 162.395 90.4094C160.625 89.05 158.57 88.3229 156.61 87.4061C154.871 86.6158 153.132 85.7938 151.489 84.8138C149.023 83.328 148.106 80.8622 148.801 78.175C149.212 76.5628 150.287 75.3931 151.805 74.8556C155.282 73.6227 158.696 73.8124 161.858 75.8989C163.533 77.0053 163.786 78.7125 162.68 80.2615C162.332 80.7357 161.131 81.0518 160.688 80.7041C160.498 80.546 160.372 79.977 160.498 79.8189C161.225 78.7757 161.131 77.7324 160.119 76.8157C158.096 74.9821 153.765 74.824 151.741 76.5627C150.066 77.9853 150.066 80.7041 151.741 82.1267C153.259 83.4228 155.093 84.0867 156.894 84.7822C159.202 85.699 161.51 86.5526 163.565 87.9752C166.695 90.1881 167.453 94.1714 165.24 97.1114C164.071 98.6289 162.427 99.4824 160.625 99.9882C157.053 101 153.449 100.905 149.876 99.9566C148.169 99.4824 146.589 98.6921 145.261 97.4592C144.85 97.0798 144.66 97.0482 144.312 97.554C143.396 98.8818 142.131 99.7037 140.55 100.083C138.243 100.652 135.966 100.621 133.785 99.7353C130.75 98.5024 129.486 95.8785 129.264 92.7804C129.043 90.03 129.075 87.2481 128.98 84.4977Z" fill="white"/>
<path d="M101.223 90.8204C101.634 89.9036 102.077 88.9868 102.488 88.0384C104.416 83.7074 106.313 79.3763 108.242 75.0769C108.336 74.8872 108.558 74.666 108.716 74.666C109.506 74.6343 110.296 74.6343 111.087 74.666C111.276 74.666 111.498 74.8872 111.624 75.0453C111.687 75.1402 111.593 75.4247 111.498 75.5195C110.549 76.1834 110.581 77.195 110.581 78.1434C110.549 82.3796 110.581 86.6158 110.581 90.852C110.581 92.812 110.549 94.8036 110.581 96.7637C110.613 97.6805 110.613 98.5973 111.498 99.2295C111.94 99.5457 111.656 99.9566 111.213 99.9882C110.043 100.051 108.842 100.051 107.672 99.9882C107.23 99.9566 106.977 99.5773 107.42 99.2295C108.178 98.6289 108.305 97.8385 108.305 96.985C108.305 91.0417 108.305 85.0667 108.305 79.1234C108.305 78.9021 108.273 78.7125 108.115 78.4279C107.989 78.6176 107.831 78.8073 107.736 78.997C105.807 83.328 104.005 87.6906 101.919 91.9584C101.097 93.6656 101.445 95.2778 101.381 96.9534C101.35 97.6488 101.381 98.376 101.413 99.0715C101.445 99.8302 101.034 99.9882 100.37 99.9882C99.7375 99.9882 99.2633 99.925 99.2001 99.1031C99.1053 96.7005 98.9788 94.2662 98.7575 91.8636C98.2201 86.3629 95.9439 81.6841 91.9923 77.8273C91.8658 77.7324 91.771 77.606 91.6445 77.5428C91.6129 77.5112 91.5497 77.5428 91.3916 77.5428C91.36 77.7957 91.3284 78.0802 91.3284 78.3647C91.3284 84.4661 91.3284 90.5991 91.3284 96.7005C91.3284 97.6489 91.4232 98.5973 92.2768 99.2611C92.751 99.6089 92.4348 99.9566 91.9923 99.9882C91.1703 100.051 90.3168 100.051 89.4632 99.9882C88.989 99.9566 88.7993 99.5457 89.2419 99.2295C90.0322 98.6289 90.1271 97.8069 90.1271 96.9534C90.1587 90.5675 90.1587 84.15 90.1271 77.7641C90.1271 76.9421 90.0639 76.0569 89.2735 75.4879C89.1471 75.3931 89.0838 75.1085 89.1155 74.9505C89.1787 74.7924 89.4 74.6343 89.5897 74.6343C90.8226 74.5711 91.929 74.6027 92.9723 75.6144C97.2085 79.6609 99.8956 84.4977 100.781 90.3146C100.812 90.4726 100.907 90.6307 100.939 90.7888C101.097 90.7888 101.16 90.7888 101.223 90.8204Z" fill="white"/>
<path d="M204.441 87.1848C204.473 90.0933 205.01 92.7172 206.338 95.1514C207.887 98.0282 211.459 99.7669 214.968 99.356C218.604 98.9134 221.101 96.2263 222.113 92.9385C222.492 91.7055 223.061 91.3262 224.294 91.7055C224.863 91.8636 224.895 92.3062 224.705 92.7804C224.01 94.6456 222.903 96.2262 221.449 97.554C219.299 99.514 216.802 100.621 213.862 100.589C210.195 100.557 207.223 99.0398 205.01 96.1946C201.501 91.6423 200.932 86.6158 203.208 81.3996C204.947 77.3847 208.013 74.7292 212.471 74.1601C216.675 73.6227 220.09 75.2666 222.745 78.4912C222.872 78.6492 222.998 78.8073 223.124 78.997C223.219 79.1234 223.346 79.2499 223.346 79.408C223.441 80.6093 222.303 80.3564 221.733 80.7673C221.259 81.1151 221.038 80.7989 220.817 80.3564C219.9 78.5544 218.825 76.9105 216.928 75.9621C213.735 74.3498 209.183 75.5511 206.938 78.7125C205.073 81.3048 204.536 84.2448 204.441 87.1848Z" fill="white"/>
<path d="M242.535 99.6405C242.029 99.8302 241.776 99.9882 241.492 100.02C240.796 100.051 240.069 100.051 239.374 100.02C239.184 100.02 238.963 99.8302 238.836 99.6405C238.805 99.5773 238.963 99.2611 239.121 99.1663C240.196 98.5656 240.607 97.5224 240.923 96.4792C242.693 90.852 244.463 85.1932 246.202 79.5344C246.455 78.7125 246.74 77.8905 246.961 77.037C247.119 76.4679 247.151 75.9305 246.708 75.4247C246.297 74.9505 246.74 74.6976 247.151 74.666C247.814 74.6027 248.478 74.6027 249.111 74.666C249.332 74.6976 249.616 75.0137 249.68 75.2666C250.185 76.7524 250.691 78.2699 251.165 79.7557C252.145 82.8538 253.094 85.9835 254.074 89.0816C254.833 91.4843 255.56 93.9185 256.318 96.2895C256.698 97.4276 257.077 98.534 258.215 99.1663C258.342 99.2295 258.5 99.514 258.468 99.6089C258.405 99.7669 258.184 99.9882 258.026 99.9882C256.856 100.02 255.655 100.02 254.485 99.9882C254.137 99.9882 253.758 99.6721 254.137 99.2927C254.675 98.7553 254.548 98.1547 254.39 97.5856C253.663 95.1514 252.873 92.7172 252.114 90.2829C252.019 89.9352 251.893 89.5875 251.355 89.6507C247.814 90.2197 244.716 91.5475 242.851 94.8353C242.377 95.6888 242.156 96.7005 241.839 97.6489C241.587 98.376 241.587 99.0398 242.535 99.6405ZM248.225 78.0802C248.131 78.0802 248.036 78.0486 247.972 78.0486C246.581 82.4745 245.191 86.9003 243.736 91.5159C244.052 91.3578 244.179 91.3262 244.274 91.263C246.202 89.8087 248.383 88.9236 250.786 88.6074C251.355 88.5442 251.45 88.2913 251.292 87.7539C250.754 86.11 250.28 84.4345 249.743 82.7906C249.237 81.2415 248.731 79.6609 248.225 78.0802Z" fill="white"/>
<path d="M288.754 96.2579C288.88 96.574 289.07 96.8585 289.101 97.1747C289.165 97.7753 289.101 98.376 289.133 98.9766C289.165 99.7353 288.849 100.02 288.121 100.02C286.225 99.9882 284.328 100.02 282.431 100.02C280.155 100.02 277.847 100.02 275.571 100.02C275.255 100.02 274.97 99.8302 274.654 99.7037C274.812 99.4508 275.002 99.2295 275.097 98.9766C275.318 98.3127 275.666 97.6172 275.697 96.9217C275.761 94.6772 275.729 92.4327 275.729 90.2197C275.729 86.2364 275.729 82.2532 275.729 78.3015C275.729 77.2582 275.761 76.215 274.781 75.4563C274.338 75.1085 274.749 74.7292 275.128 74.6976C276.298 74.6343 277.436 74.666 278.606 74.6976C278.764 74.6976 279.017 74.8873 279.048 75.0453C279.08 75.2034 278.985 75.4879 278.859 75.5827C278.195 76.0253 278.1 76.6892 278.005 77.3847C277.942 77.7957 277.942 78.2383 277.942 78.6492C277.942 85.0351 277.942 91.4526 277.942 97.8385C277.942 98.945 277.942 98.945 279.017 98.945C281.388 98.945 283.759 98.945 286.13 98.945C287.552 98.945 287.774 98.7553 288.058 97.3327C288.121 96.985 288.28 96.6688 288.406 96.3527C288.501 96.2895 288.627 96.2895 288.754 96.2579Z" fill="white"/>
<path d="M183.576 87.3113C183.576 84.2132 183.576 81.1151 183.576 77.9854C183.576 77.037 183.513 76.1518 182.691 75.4879C182.312 75.2034 182.501 74.6976 183.007 74.666C184.177 74.6027 185.315 74.6027 186.485 74.666C186.896 74.6976 187.243 75.0769 186.738 75.4879C185.979 76.1202 185.852 76.9737 185.852 77.8273C185.821 84.1816 185.821 90.5675 185.852 96.9217C185.852 97.7753 185.979 98.6289 186.769 99.2295C187.243 99.5773 186.927 99.9566 186.516 99.9882C185.347 100.051 184.145 100.051 182.976 99.9882C182.533 99.9566 182.248 99.6089 182.691 99.2295C183.481 98.5973 183.576 97.7437 183.576 96.8269C183.576 93.6656 183.576 90.4726 183.576 87.3113Z" fill="white"/>
</svg>
